<?xml version="1.0" standalone="no"?>
<!DOCTYPE svg PUBLIC "-//W3C//DTD SVG 1.1//EN" "http://www.w3.org/Graphics/SVG/1.1/DTD/svg11.dtd" >
<svg xmlns="http://www.w3.org/2000/svg">
<metadata>
This is a custom SVG font generated by IcoMoon.
</metadata>
<defs>
<font id="IcoMoon" horiz-adv-x="700" >
<font-face units-per-em="1000" ascent="750" descent="-250" />
<missing-glyph horiz-adv-x="500" />
<glyph unicode="&#x21;" d="M445 337l255 229v-404zM0 566l255 -229l-255 -175v404zM350 252l61 55l289 -173h-700l289 173zM679 566l-329 -245l-329 245h658z" />
<glyph unicode="&#x22;" d="M0 568h700v-437h-700v437zM632 524h-564l282 -194zM655 175v315l-305 -208l-305 208v-315h610z" />
<glyph unicode="&#x23;" d="M350 700q42 0 79 -16t64 -43t43 -64t16 -79v-9v-5v-3q0 -1 -0.5 -2.5t-0.5 -2.5q-3 -31 -13.5 -68t-25.5 -76t-32.5 -79t-35.5 -77q-42 -87 -94 -176q-52 89 -94 176q-18 37 -36 77t-32.5 79t-25 76t-13.5 68q0 1 -0.5 2.5t-0.5 2.5v3v5v9q0 42 16 79t43 64t64 43t79 16z M350 415q36 0 61.5 25.5t25.5 61.5t-25.5 61.5t-61.5 25.5t-61.5 -25.5t-25.5 -61.5t25.5 -61.5t61.5 -25.5z" />
<glyph unicode="&#x24;" d="M608 610q17 0 29.5 -15t12.5 -36v-73h-600v73q0 21 12 36t29 15h98v64q0 11 6 18.5t15 7.5t15.5 -7.5t6.5 -18.5v-64h231v64q0 11 6.5 18.5t15.5 7.5t15 -7.5t6 -18.5v-64h102zM210 515q17 0 28 11.5t11 27.5q0 21 -17 33v-19q0 -11 -6.5 -18t-15.5 -7t-15 7t-6 18v19 q-18 -11 -18 -33q0 -16 11 -27.5t28 -11.5zM485 515q17 0 28 11.5t11 27.5q0 22 -18 33v-19q0 -11 -6 -18t-15 -7t-15.5 7t-6.5 18v19q-17 -12 -17 -33q0 -16 11 -27.5t28 -11.5zM50 465h600v-415q0 -21 -12.5 -35.5t-29.5 -14.5h-517q-17 0 -29 14.5t-12 35.5v415zM452 314 h156v111h-156v-111zM452 187h156v92h-156v-92zM452 41h156v111h-156v-111zM278 314h139v111h-139v-111zM278 187h139v92h-139v-92zM278 41h139v111h-139v-111zM87 314h156v111h-156v-111zM87 187h156v92h-156v-92zM87 41h156v111h-156v-111z" />
<glyph unicode="&#x25;" d="M328 481v-88h-87v88h87zM459 481v-88h-87v88h87zM591 481v-88h-88v88h88zM197 350v-87h-88v87h88zM328 350v-87h-87v87h87zM459 350v-87h-87v87h87zM591 350v-87h-88v87h88zM197 218v-87h-88v87h88zM328 218v-87h-87v87h87zM459 218v-87h-87v87h87zM568 700h132v-700 h-700v700h131v-44h87v44h263v-44h87v44zM656 43v525h-613v-525h613z" />
<glyph unicode="&#x26;" d="M634 657q28 0 47 -19t19 -46v-484q0 -27 -19 -46t-47 -19h-568q-28 0 -47 19t-19 46v484q0 27 19 46t47 19h568zM657 593q0 9 -6 15.5t-15 6.5h-572q-8 0 -14.5 -6.5t-6.5 -15.5v-480q0 -9 6.5 -15.5t14.5 -6.5h572q9 0 15 6.5t6 15.5v480zM216 472q16 0 16 -16v-43 q0 -16 -16 -16h-90q-16 0 -16 16v43q0 16 16 16h90zM195 483h-48v73h48v-73zM147 386h48v-236h-48v236zM396 310q6 0 10.5 -4.5t4.5 -11.5v-43q0 -8 -4.5 -12t-10.5 -4h-91q-16 0 -16 16v43q0 16 16 16h91zM374 321h-48v235h48v-235zM326 224h48v-74h-48v74zM574 417 q16 0 16 -16v-43q0 -16 -16 -16h-90q-16 0 -16 16v43q0 16 16 16h90zM553 428h-48v128h48v-128zM505 331h48v-181h-48v181z" />
<glyph unicode="&#x27;" d="M248 207q6 -9 10 -25l48 -7v-44l-48 -6q-3 -17 -10 -26l29 -39l-31 -31l-39 29q-13 -7 -25 -10l-7 -48h-44l-6 48q-14 3 -26 10l-39 -29l-31 31l29 39q-7 13 -10 26l-48 6v44l48 7q3 12 10 25l-29 39l31 31l39 -29q5 4 12 6l14 4l6 48h44l7 -48q16 -4 25 -10l39 29 l31 -31zM153 109q18 0 31 13t13 31t-13 31t-31 13t-31 -13t-13 -31t13 -31t31 -13zM654 429q-1 -4 -1.5 -8t-1.5 -8l39 -25l-17 -41l-45 10q-3 -4 -5 -7t-5 -7l27 -39l-31 -30l-39 26q-3 -2 -6.5 -4.5t-6.5 -4.5l10 -45l-41 -17l-25 39l-8 -2t-9 -1l-8 -47h-43l-9 47 q-4 0 -8 1l-8 2l-25 -39l-41 17l10 45q-4 2 -7 4.5t-7 4.5l-38 -26l-31 30l26 39q-2 4 -4.5 7t-4.5 7l-45 -10l-17 41l39 25l-2 8t-1 8l-47 8v44l47 8q0 5 1 9l2 8l-39 25l17 41l45 -10q2 3 4.5 6.5t4.5 6.5l-26 39l31 31l38 -27q4 3 7 5t7 5l-10 45l41 17l25 -39q4 1 8 1.5 t8 1.5l9 46h43l8 -46q5 -1 9 -1.5t8 -1.5l25 39l41 -17l-10 -45q3 -3 6.5 -5t6.5 -5l39 27l31 -31l-27 -39q3 -3 5 -6.5t4 -6.5l46 10l17 -41l-39 -25q1 -4 1.5 -8t1.5 -9l46 -8v-44zM459 393q28 0 47 19.5t19 46.5q0 28 -19 47t-47 19q-27 0 -46.5 -19t-19.5 -47 q0 -27 19.5 -46.5t46.5 -19.5z" />
<glyph unicode="&#x28;" d="M643 298q-8 -41 -26 -78l41 -36q-11 -21 -25 -40t-30 -36l-47 28q-29 -28 -67 -49l13 -52q-43 -22 -90 -29l-21 50q-20 -3 -41 -3q-22 0 -41 3l-21 -50q-47 7 -90 29l13 52q-40 22 -68 49l-46 -28q-16 17 -30 36t-26 40l42 36q-18 37 -26 78l-54 5q-3 22 -3 47q0 24 3 47 l54 5q8 41 26 78l-42 36q12 21 26 40t30 36l46 -28q28 27 68 49l-13 53q21 10 43.5 17t46.5 11l21 -50q10 2 20 3t21 1t21 -1t20 -3l21 50q24 -4 46.5 -11t43.5 -17l-13 -53q38 -21 67 -49l47 28q16 -17 30 -36t25 -40l-41 -36q18 -37 26 -78l54 -5q3 -23 3 -47 q0 -25 -3 -47zM350 248q21 0 39.5 8t32.5 22t22 32.5t8 39.5t-8 39.5t-22 32t-32.5 21.5t-39.5 8t-39.5 -8t-32 -21.5t-21.5 -32t-8 -39.5t8 -39.5t21.5 -32.5t32 -22t39.5 -8z" />
<glyph unicode="&#x29;" d="M366 298q22 -22 22 -52t-22 -52l-172 -172q-22 -22 -52 -22t-52 22l-68 68q-22 22 -22 52t22 52l172 172q22 22 52 22t51 -22l2 -1l-41 -42l-2 2q-4 4 -10 4t-11 -4l-172 -172q-5 -5 -5 -11t5 -10l69 -69q5 -5 10.5 -5t10.5 5l172 172q9 10 0 21l-2 1l42 42zM679 610 q22 -22 22 -52t-22 -52l-172 -172q-22 -22 -52 -22t-52 22l-1 1l41 42l2 -2q9 -9 20 0l173 172q9 12 0 21l-70 69q-9 11 -20 0l-173 -172q-9 -11 0 -21l2 -1l-42 -41l-1 1q-21 21 -21 51.5t21 51.5l173 173q21 21 51.5 21t51.5 -21zM212 221q-7 7 -6 17.5t10 18.5l227 227 q8 9 19 10.5t18 -5.5l9 -9q7 -7 5.5 -18t-10.5 -19l-227 -227q-8 -9 -18.5 -10t-17.5 6z" />
<glyph unicode="&#x2a;" d="M405 650q6 -20 19.5 -35t37.5 -21t60.5 0.5t90.5 29.5v-277q-24 -11 -57.5 -11t-65.5 8t-56 21.5t-29 30.5q-5 14 -36 12.5t-71.5 -12t-81 -27.5t-62.5 -33v-300q0 -15 -9.5 -25.5t-23.5 -10.5t-23.5 10.5t-9.5 25.5v628q0 15 9.5 25.5t23.5 10.5q22 0 30 -20q21 0 61 2 t81 0.5t73.5 -8.5t38.5 -24zM154 352q21 54 26.5 102t2 88t-12.5 70t-16 47v-307z" />
<glyph unicode="&#x2b;" d="M670 204l-33 -58l-76 44v-76h-66l-1 114l-110 65v-129l98 -58l-33 -57l-65 38v-87h-67v87l-66 -38l-33 57l99 58v129l-111 -65l-1 -114h-66v76l-75 -44l-34 58l76 43l-66 39l33 57l99 -57l111 64l-111 64l-99 -57l-33 57l66 38l-76 44l33 58l76 -44v76h66l1 -114l110 -65 v129l-98 58l33 57l65 -38v87h67v-87l66 38l33 -57l-99 -58v-129l111 65l1 114h66v-76l75 44l34 -58l-76 -43l66 -39l-33 -57l-99 57l-111 -64l111 -64l99 57l33 -57l-66 -38l76 -44v0z" />
<glyph unicode="&#x2c;" d="M609 482q40 -10 65.5 -42t25.5 -75q0 -24 -9.5 -46t-25.5 -38t-37.5 -25.5t-46.5 -9.5h-449q-27 0 -51 10.5t-42 28.5t-28.5 42.5t-10.5 51.5t10.5 51.5t28.5 42.5t42 28.5t51 10.5q7 0 12.5 -1t11.5 -2q-1 3 -1 6.5v6.5q0 19 7 35.5t19.5 29t29 19.5t35.5 7q46 0 73 -35 q23 29 56 45.5t72 16.5q33 0 62 -12.5t51 -34t35 -50t14 -61.5zM416 129q1 -2 -2 -4l-32 -14l32 -14q3 -2 2 -4q0 -2 -3 -8q-3 -5 -6 -6q-2 -2 -3 0l-29 21l4 -36q0 -2 -2 -3t-9 -1t-8 1q-2 1 -2 3l4 36l-29 -21q-2 -2 -3 0q-3 1 -6 6q-3 6 -3 8q0 3 2 4l33 14l-33 14 q-2 1 -2 4q0 2 3 7q3 7 6 7q1 1 3 0l29 -21l-4 36q0 2 2 3q1 1 8 1t9 -1t2 -3l-4 -36l29 21q1 1 3 0q2 0 6 -7q3 -5 3 -7zM262 170q0 -3 -2 -3l-32 -15l32 -15q2 0 2 -3t-3 -7q-3 -7 -5 -7q-3 -3 -3 0l-30 21l4 -36q0 -2 -2 -3q-1 -1 -8 -1t-8 1q-3 1 -3 3l5 36l-30 -21 q0 -3 -3 0q-3 0 -6 7q-3 4 -3 7t2 3l33 15l-33 15q-2 0 -2 3q0 2 3 8q3 4 6 6q3 3 3 0l30 -21l-5 36q0 3 3 3q1 1 8 1t8 -1q2 0 2 -3l-4 -36l30 21q0 3 3 0q1 -1 5 -6q3 -6 3 -8zM551 195q0 -3 -2 -3l-29 -13l29 -13q2 -1 2 -3q0 -3 -3 -7q-4 -6 -5 -6q-2 -2 -3 0l-26 19 l3 -33q2 -2 -1 -2q-2 -1 -8 -1t-7 1q-4 0 -2 2l4 33l-27 -19q-2 -2 -3 0q-1 0 -5 6q-2 3 -2 7q0 2 1 3l30 13l-30 13q-1 0 -1 3q0 4 2 7t5 6q1 1 3 0l27 -19l-4 32q-1 2 2 3q1 1 7 1t8 -1q2 -2 1 -3l-3 -32l26 19q1 1 3 0q1 -1 5 -6q3 -5 3 -7z" />
<glyph unicode="&#x2d;" d="M609 487q40 -9 65.5 -41t25.5 -75q0 -24 -9.5 -46t-25.5 -38t-37.5 -25.5t-46.5 -9.5h-449q-27 0 -51 10.5t-42 28.5t-28.5 42t-10.5 51q0 28 10.5 52t28.5 42t42 28.5t51 10.5q7 0 12.5 -0.5t11.5 -1.5q-1 3 -1 6.5v6.5q0 38 26.5 65t64.5 27q23 0 41.5 -9.5t31.5 -26.5 q23 29 56 45t72 16q33 0 62 -12.5t51 -33.5t35 -50t14 -62zM335 55q-13 3 -17 14.5t-0.5 26t15 30t29.5 27.5q10 -19 12 -38t-2.5 -33.5t-14 -22t-22.5 -4.5zM478 125q-13 3 -17 14.5t-0.5 26t15 30t29.5 27.5q10 -19 12 -38t-2.5 -33.5t-14 -22t-22.5 -4.5zM193 90 q-13 3 -17.5 14.5t-0.5 26t15 30t29 27.5q9 -19 11 -38t-1.5 -33.5t-13 -22t-22.5 -4.5z" />
<glyph unicode="&#x2e;" d="M482 523q-9 0 -15.5 6.5t-6.5 15.5v35q0 9 6.5 15.5t15.5 6.5q10 0 16.5 -6.5t6.5 -15.5v-35q0 -9 -6.5 -15.5t-16.5 -6.5zM678 407q9 0 15.5 -6.5t6.5 -15.5q0 -10 -6.5 -16t-15.5 -6h-35q-9 0 -15.5 6t-6.5 16q0 9 6.5 15.5t15.5 6.5h35zM329 507q-7 6 -7 15.5t7 15.5 q6 7 15.5 7t16.5 -7l24 -24q6 -7 6 -16t-6 -16q-6 -6 -16 -6q-9 0 -15 6zM636 263q7 -7 7 -16.5t-7 -15.5q-6 -6 -16 -6q-9 0 -15 6l-25 25q-7 6 -7 15.5t7 15.5t16 6t16 -6zM596 476q-10 0 -16 6q-7 7 -7 16t7 16l25 24q6 7 15.5 7t15.5 -7q7 -6 7 -15.5t-7 -15.5l-24 -25 q-6 -6 -16 -6zM603 385q0 -33 -16 -60.5t-42 -43.5q12 -14 19 -33t7 -41q0 -23 -7.5 -42.5t-20.5 -34.5t-31 -23.5t-38 -8.5h-366q-23 0 -42.5 9.5t-34 26t-23 38.5t-8.5 47t8.5 47t23 38.5t34 26t42.5 9.5q5 0 9.5 -0.5t9.5 -1.5v11q0 35 21.5 59.5t52.5 24.5q37 0 59 -33 q18 26 45 41.5t59 15.5q5 0 10.5 -0.5t10.5 -0.5q17 23 42 36t55 13q25 0 47 -9.5t38.5 -26t26 -38t9.5 -46.5zM510 307q24 9 39.5 30t15.5 48q0 34 -24 58t-59 24q-17 0 -32 -7t-26 -18q32 -18 52 -52.5t21 -77.5q6 -2 13 -5z" />
<glyph unicode="&#x2f;" d="M350 547q41 0 77 -15.5t62.5 -42.5t42 -63t15.5 -76q0 -41 -15.5 -77t-42 -62.5t-62.5 -42t-77 -15.5t-76.5 15.5t-62.5 42t-42.5 62.5t-15.5 77q0 40 15.5 76t42.5 63t62.5 42.5t76.5 15.5zM350 209q29 0 55 11t45 30t30 45t11 55t-11 55t-30 45t-45 30t-55 11t-55 -11 t-45 -30t-30 -45t-11 -55t11 -55t30 -45t45 -30t55 -11zM350 580q-13 0 -22.5 9t-9.5 23v56q0 13 9.5 22.5t22.5 9.5q14 0 23 -9.5t9 -22.5v-56q0 -14 -9 -23t-23 -9zM350 120q14 0 23 -9t9 -23v-56q0 -13 -9 -22.5t-23 -9.5q-13 0 -22.5 9.5t-9.5 22.5v56q0 14 9.5 23 t22.5 9zM120 350q0 -13 -9 -22.5t-23 -9.5h-56q-13 0 -22.5 9.5t-9.5 22.5q0 14 9.5 23t22.5 9h56q14 0 23 -9t9 -23zM668 382q13 0 22.5 -9t9.5 -23q0 -13 -9.5 -22.5t-22.5 -9.5h-56q-14 0 -23 9.5t-9 22.5q0 14 9 23t23 9h56zM102 552q-9 9 -9 22.5t9 23.5q10 9 23.5 9 t22.5 -9l40 -40q9 -10 9 -23t-9 -23q-11 -9 -23 -9q-14 0 -23 9zM598 148q9 -9 9 -22.5t-9 -23.5q-11 -9 -23 -9q-14 0 -23 9l-40 40q-9 10 -9 23t9 23q10 9 23 9t23 -9zM142 188q10 9 23 9t23 -9q9 -10 9 -23t-9 -23l-40 -40q-9 -9 -23 -9q-13 0 -23 9q-9 10 -9 23.5 t9 22.5zM535 503q-13 0 -23 9q-9 10 -9 23t9 23l40 40q9 9 22.5 9t23.5 -9q9 -10 9 -23.5t-9 -22.5l-40 -40q-9 -9 -23 -9z" />
<glyph unicode="&#x30;" d="M489 656q63 -36 104.5 -92t59 -121.5t9.5 -134.5t-44 -132t-92 -104.5t-121.5 -59t-134.5 -9.5t-132 44q-63 37 -103 90q51 -7 102 1.5t97 30.5t85 57.5t67 83.5q27 48 38.5 99.5t7.5 102.5t-22.5 99t-49.5 89q33 -5 65.5 -15.5t63.5 -28.5z" />
<glyph unicode="&#x31;" d="M700 428l-158 -176l24 -235l-216 96l-216 -96l24 235l-158 176l231 51l119 204l119 -204zM350 148l178 -78l-20 193l130 145l-190 41l-98 168l-98 -168l-190 -41l130 -145l-20 -193z" />
<glyph unicode="&#x32;" d="M700 428l-158 -176l24 -235l-216 96l-216 -96l24 235l-158 176l231 51l119 204l119 -204zM350 148l178 -78l-20 193l130 145l-190 41l-98 168v-469z" />
<glyph unicode="&#x33;" d="M350 683l119 -204l231 -51l-158 -176l24 -235l-216 96l-216 -96l24 235l-158 176l231 51z" />
<glyph unicode="&#x34;" d="M700 428l-210 -158l76 -253l-216 151l-216 -151l76 253l-210 158l263 6l87 249l87 -249zM491 120l-50 165l137 104l-171 4l-57 162l-57 -162l-171 -4l137 -104l-50 -165l141 99z" />
<glyph unicode="&#x35;" d="M700 428l-210 -158l76 -253l-216 150l-216 -150l76 253l-210 158l263 6l87 249l87 -249zM491 121l-50 164l137 104l-171 4l-57 162v-336z" />
<glyph unicode="&#x36;" d="M350 167l-216 -150l76 252l-210 159l264 6l86 249l87 -249l263 -6l-210 -159l76 -252l-216 150v0z" />
<glyph unicode="&#x37;" d="M351 17l-17 24q-38 54 -81 95t-83 76q-34 30 -65 59t-54 61.5t-37 71t-14 86.5q0 40 15 75t41.5 61t61.5 41.5t75 15.5q48 0 89 -21.5t68 -58.5q27 37 68.5 58.5t88.5 21.5q40 0 75 -15.5t61 -41.5t41.5 -61t15.5 -75q0 -46 -14 -83.5t-37.5 -70t-54 -61.5t-63.5 -58 q-43 -38 -85.5 -79.5t-78.5 -96.5zM193 643q-32 0 -59.5 -12t-48.5 -32.5t-33 -48.5t-12 -60q0 -42 12 -75t33 -62t49.5 -56t61.5 -55q38 -32 77.5 -70t75.5 -86q37 50 77.5 88.5t78.5 72.5q32 29 60.5 55.5t49.5 55t33 61t12 71.5q0 32 -12 60t-33 48.5t-49 32.5t-59 12 q-45 0 -82.5 -23.5t-56.5 -64.5l-18 -38l-18 38q-19 41 -56.5 64.5t-82.5 23.5z" />
<glyph unicode="&#x38;" d="M183 674q57 0 101 -29t66 -77q22 48 66 77t100 29q38 0 71.5 -14.5t58.5 -39t39.5 -58t14.5 -71.5q0 -50 -16.5 -90t-44.5 -74.5t-64 -67t-75 -67.5t-78 -75t-72 -91q-36 51 -75.5 91t-78.5 74.5t-74.5 66t-62.5 66t-43 75t-16 92.5q0 38 14.5 71.5t39 58t58 39 t71.5 14.5z" />
<glyph unicode="&#x39;" d="M658 269q0 -22 -11.5 -41.5t-32.5 -29.5q6 -12 6 -29q0 -26 -12.5 -49t-36.5 -28q6 -11 6 -25q0 -24 -19.5 -45.5t-51.5 -21.5h-52h-38h-88q-57 0 -133 52q-17 11 -40.5 19.5t-46 14t-38.5 8.5l-16 3l-12 2v306h16q15 0 45 7.5t63.5 22.5t66.5 38t55 55q21 30 29 54.5 t13 44.5q6 23 14 41.5t33 26.5q47 16 78 -14q17 -17 22 -43.5t-4 -55.5q-5 -16 -10 -25.5t-11 -18.5q-5 -9 -12 -21t-15 -35q-5 -15 -9.5 -25.5t-8.5 -18.5h94q18 -1 32.5 -1h38.5q25 0 40 -9t23 -18q20 -25 20 -56q0 -26 -14 -42q17 -15 17 -43zM456 407q-16 -3 -24 -17.5 t-6 -28.5q2 -16 15 -25.5t36 -9.5q20 -1 38.5 -1h35.5h44q9 0 15 1q9 0 13 8.5t4 19.5q0 22 -13 38q-15 18 -42 18h-58q-7 1 -12 1h-10q-20 0 -36 -4zM344 59q0 24 19 40q-17 8 -24.5 21t-9.5 26q-2 21 8.5 39t28.5 26q-10 8 -14.5 18.5t-6.5 21.5q-2 25 13 45t39 25 q3 0 7.5 0.5t9.5 1.5q-7 8 -10.5 17.5t-4.5 17.5q-2 32 15 53h-42l-45 27h47q2 2 8.5 12.5t16.5 39.5q9 26 16.5 39.5t13.5 22.5t10 16.5t8 20.5q7 23 4 42t-15 31q-19 18 -50 7q-14 -5 -18.5 -15t-10.5 -33q-5 -20 -14 -47.5t-32 -61.5q-21 -31 -53 -55t-66.5 -41 t-67.5 -26.5t-55 -11.5v-256q11 -2 29 -6t38 -10t40 -14t35 -18q70 -47 117 -47h27q-11 16 -11 32zM506 27q22 0 33.5 14t11.5 26q0 3 -1.5 7.5t-4.5 7.5q-7 7 -25 7h-104q-22 0 -34 -10q-10 -9 -10 -20q0 -12 11 -22t33 -10h38h52zM583 132q10 17 10 37q0 9 -2.5 15.5 t-5.5 6.5h-64q-15 1 -30.5 1h-30.5q-19 0 -42 -1t-34 -3q-14 -3 -21.5 -15.5t-6.5 -23.5q3 -30 49 -32q20 0 39 -0.5t39 -0.5q33 0 53 0.5t21 0.5q17 0 26 15zM619 235q6 7 9 16t3 18q0 6 -3.5 17t-19.5 11h-67q-17 1 -32 1h-29q-20 0 -43 -1t-35 -3q-15 -3 -23 -15.5 t-7 -25.5q3 -31 53 -33q20 -1 40.5 -1h41.5q35 0 56.5 0.5t22.5 0.5q13 0 20.5 5t12.5 10z" />
<glyph unicode="&#x3a;" d="M636 394q-2 -3 -9 -8q11 -10 16.5 -24.5t5.5 -29.5q0 -29 -18 -48q-6 -8 -19 -14.5t-35 -6.5l-69 -2h-95q5 -8 9 -18.5t9 -24.5q8 -23 14.5 -35t12.5 -21t11.5 -18.5t10.5 -25.5q8 -29 3 -55.5t-22 -43.5q-20 -19 -49 -19q-7 0 -14 1t-15 4q-24 8 -32.5 26t-13.5 41 q-5 20 -13.5 45t-28.5 54q-22 32 -54.5 55.5t-65.5 38.5t-62.5 22.5t-44.5 7.5h-19v297l11 2q1 0 18 3.5t40.5 9.5t48.5 14.5t42 19.5l4 3q20 14 34 23t26 14.5t26 9.5t34 7q14 2 52.5 2t84.5 -1q15 0 26 -0.5t15 -0.5q25 1 45.5 -9t31.5 -29q17 -28 3 -54q-1 -1 -3 -5 q11 -3 20 -12q22 -17 22 -46q0 -26 -17 -45q19 -9 28.5 -26.5t9.5 -36.5q0 -23 -15 -41zM622 332q0 16 -8.5 29.5t-23.5 13.5v28q17 0 25 9q9 9 9 23t-11 30t-38 16v27q11 0 19.5 10.5t8.5 24.5q0 5 -2 12.5t-10 12.5q-15 14 -50 14v27q19 0 27 11q5 11 -3 26q-8 12 -22 19 t-31 6h-42q-16 1 -36.5 1.5t-39.5 0.5t-34.5 -0.5t-22.5 -1.5q-18 -3 -30 -6t-23 -8.5t-23.5 -13.5t-32.5 -21l-4 -3q-15 -10 -36 -18.5t-42 -14.5t-40 -10.5t-30 -6.5v-247q21 0 52.5 -9t66 -26t67 -42t55.5 -58t32 -60.5t14 -47.5q5 -23 10.5 -33t18.5 -15q31 -11 50 7 q11 11 14.5 30.5t-3.5 41.5q-4 13 -8.5 21t-9.5 16q-6 10 -13.5 23.5t-16.5 38.5q-10 29 -16.5 39.5t-8.5 12.5h-47l52 27h122l70 2q23 0 35 12q10 12 10 30z" />
<glyph unicode="&#x3b;" d="M626 251q0 -5 -4.5 -11t-10 -12.5t-10.5 -12.5t-5 -11q-1 -11 7 -26t8 -25q0 -8 -5 -15t-11.5 -13.5l-12.5 -12.5t-9 -11q-4 -8 -2.5 -22t-1.5 -22q-3 -6 -9.5 -14t-14.5 -15t-17 -12.5t-16 -7.5q-22 -7 -61.5 -8t-79.5 1q-47 2 -98 7l-200 26v287h66q7 1 18 8t24.5 24 t30 47t35.5 77q7 16 17 26t24 20q11 8 20.5 19.5t17 30t12.5 47t8 70.5q0 6 8.5 8t20.5 0t25 -9t23 -20q8 -11 12.5 -26t5.5 -32t-1.5 -34.5t-8.5 -33.5q-5 -11 -13.5 -27.5t-16.5 -34.5t-12 -34t2 -26q44 1 82 1q32 0 63.5 -1.5t43.5 -6.5q7 -3 15.5 -11.5t15 -19t11 -21 t4.5 -18.5q-1 -8 -11.5 -19.5t-11.5 -20.5q-1 -5 2.5 -12t8 -14.5t8.5 -14.5t4 -12z" />
<glyph unicode="&#x3c;" d="M603 396q1 -9 11.5 -20.5t11.5 -19.5q0 -8 -4.5 -19t-11 -21.5t-15 -18.5t-15.5 -11q-12 -5 -43 -6.5t-63 -1.5q-38 0 -83 1q-6 -10 -2 -26.5t12 -34t16.5 -34t13.5 -27.5q6 -16 8.5 -33.5t1.5 -34.5t-5.5 -32.5t-12.5 -25.5q-10 -13 -23 -20.5t-25 -9.5t-20 0t-8 8 q-3 42 -8.5 70.5t-13 47t-17 30t-20.5 19.5q-13 11 -23.5 21t-17.5 26q-19 47 -35.5 76t-30 46t-24.5 24.5t-18 11.5h-62h-4v285l200 26q52 4 99 6q40 2 79.5 1t61.5 -7q7 -2 15.5 -7.5t16.5 -13t15 -15.5t10 -14q3 -8 1 -22t2 -21q3 -5 9 -11t12.5 -13t11.5 -14t5 -14 q0 -11 -8 -25.5t-7 -25.5q0 -5 5 -11t10.5 -12.5t10 -12.5t4.5 -11q0 -6 -4 -13t-8.5 -14t-8 -14t-2.5 -12z" />
<glyph unicode="&#x3d;" d="M690 117q18 -32 5 -54t-50 -22h-590q-37 0 -50 22t6 54l294 512q19 32 45 32t44 -32zM308 473l11 -241h61l12 241h-84zM350 73q26 0 42 16.5t16 42.5q-1 26 -16.5 43t-41.5 17t-42.5 -17t-16.5 -43t16 -42.5t42 -16.5h1z" />
<glyph unicode="&#x3e;" d="M350 700q72 0 136 -27.5t111.5 -75t75 -111.5t27.5 -136t-27.5 -136t-75 -111.5t-111.5 -75t-136 -27.5t-136 27.5t-111.5 75t-75 111.5t-27.5 136t27.5 136t75 111.5t111.5 75t136 27.5zM548 412h-137v136h-122v-136h-136v-123h136v-136h122v136h137v123z" />
<glyph unicode="&#x3f;" d="M350 700q72 0 136 -27.5t111.5 -75t75 -111.5t27.5 -136t-27.5 -136t-75 -111.5t-111.5 -75t-136 -27.5t-136 27.5t-111.5 75t-75 111.5t-27.5 136t27.5 136t75 111.5t111.5 75t136 27.5zM547 411h-395v-122h395v122z" />
<glyph unicode="&#x40;" d="M350 700q72 0 136 -27.5t111.5 -75t75 -111.5t27.5 -136t-27.5 -136t-75 -111.5t-111.5 -75t-136 -27.5t-136 27.5t-111.5 75t-75 111.5t-27.5 136t27.5 136t75 111.5t111.5 75t136 27.5zM350 74q26 0 44.5 18t18.5 44t-18.5 44.5t-44.5 18.5t-44 -18.5t-18 -44.5t18 -44 t44 -18zM503 455q6 18 6 37q0 28 -12 54t-32 43q-18 17 -49 28q-15 5 -31 7.5t-34 2.5q-33 0 -60 -12q-28 -10 -49 -30q-11 -11 -19 -23t-15 -26q-6 -15 -10 -31.5t-6 -34.5h87q13 84 74 84q14 0 27 -5q11 -4 22 -13q7 -7 14 -21q5 -13 5 -26q0 -7 -2 -15q0 -8 -5 -16 q-3 -6 -14 -18l-11 -11t-14 -13q-38 -31 -52 -60q-15 -30 -15 -103h83q0 54 7 69q2 7 14 19q10 12 28 25q7 7 14 13.5t14 13.5q11 12 21 29q9 15 14 33z" />
<glyph unicode="&#x41;" d="M350 700q72 0 136 -27.5t111.5 -75t75 -111.5t27.5 -136t-27.5 -136t-75 -111t-111.5 -74.5t-136 -27.5t-136 27.5t-111.5 74.5t-75 111t-27.5 136t27.5 136t75 111.5t111.5 75t136 27.5zM295 580q-21 -20 -21 -46q0 -27 21 -46q20 -19 50 -19q29 0 49 19t20 46t-20 46 t-49 19q-30 0 -50 -19zM467 144q-5 1 -9.5 1.5t-8.5 2.5q-5 1 -8.5 2t-7.5 3q-10 3 -15 11q-6 7 -6 19v228l-179 -4v-23q5 0 11.5 -1t12.5 -3t11 -3.5t8 -3.5q5 -2 8 -5.5t6 -7.5q6 -9 6 -20v-161q0 -14 -5 -19q-5 -8 -15 -11q-4 -1 -7.5 -2t-8.5 -1t-9 -0.5t-9 -1.5v-43 h225v43z" />
<glyph unicode="&#x42;" d="M598 598q50 -50 76 -113.5t26 -133.5q0 -71 -26 -134.5t-76 -113.5q-51 -51 -114 -77t-134 -26q-70 0 -133.5 26t-113.5 77q-51 50 -77 113.5t-26 134.5q0 70 26 133.5t77 113.5q50 50 113 76t134 26t134.5 -26t113.5 -76zM350 622q-88 0 -159 -51l379 -379 q25 34 38.5 74t13.5 85q0 56 -21.5 105.5t-58 86t-86 58t-106.5 21.5zM158 158q38 -39 87.5 -59.5t104.5 -20.5q46 0 87.5 14.5t75.5 40.5l-381 381q-26 -35 -40 -76.5t-14 -86.5q0 -55 20.5 -105t59.5 -88z" />
<glyph unicode="&#x43;" d="M690 129q11 -11 11 -24.5t-11 -24.5l-70 -70q-11 -11 -25 -11t-24 11l-221 221l-221 -221q-10 -11 -24 -11t-24 11l-71 70q-11 11 -11 24.5t11 24.5l221 221l-221 221q-11 11 -11 24.5t11 24.5l71 70q10 10 24 10t24 -10l221 -221l221 221q10 10 24 10t25 -10l70 -70 q11 -11 11 -24.5t-11 -24.5l-221 -221z" />
<glyph unicode="&#x44;" d="M673 419q11 0 19 -8.5t8 -19.5v-82q0 -11 -8 -19.5t-19 -8.5h-254v-254q0 -11 -8.5 -19t-19.5 -8h-82q-11 0 -19.5 8t-8.5 19v254h-254q-11 0 -19 8.5t-8 19.5v82q0 11 8 19.5t19 8.5h254v254q0 11 8.5 19t19.5 8h82q11 0 19.5 -8t8.5 -19v-254h254v0z" />
<glyph unicode="&#x45;" d="M134 162l108 188l108 188l109 -188l107 -188h-216h-216v0z" />
<glyph unicode="&#x46;" d="M566 538l-107 -188l-109 -188l-108 188l-108 188h216h216v0z" />
<glyph unicode="&#x47;" d="M538 134l-188 107l-188 109l188 108l188 108v-216v-216v0z" />
<glyph unicode="&#x48;" d="M162 566l188 -108l188 -108l-188 -109l-188 -107v216v216v0z" />
<glyph unicode="&#x49;" d="M387 431l139 -81l-139 -80l-139 -81v161v161zM350 700q72 0 136 -27.5t111.5 -75t75 -111.5t27.5 -136t-27.5 -136t-75 -111.5t-111.5 -75t-136 -27.5t-135.5 27.5t-111.5 75t-75.5 111.5t-27.5 136t27.5 136t75.5 111.5t111.5 75t135.5 27.5zM350 73q57 0 107.5 22 t88 59.5t59.5 88t22 107.5t-22 107.5t-59.5 88t-88 59.5t-107.5 22t-107.5 -22t-88 -59.5t-59.5 -88t-22 -107.5t22 -107.5t59.5 -88t88 -59.5t107.5 -22z" />
<glyph unicode="&#x4a;" d="M221 169v362h88v-362h-88zM391 531h87v-362h-87v362z" />
<glyph unicode="&#x4b;" d="M530 169h-361v362h361v-362v0z" />
<glyph unicode="&#x4c;" d="M113 450l172 172v-544l-172 172h-94v200h94zM423 700q56 -17 103.5 -51t82 -79.5t53.5 -101.5t19 -118t-19 -117.5t-53.5 -101.5t-82 -80t-103.5 -51l-11 38q49 16 91 46t73 71t48 90.5t17 104.5t-17 104.5t-48 90.5t-73 71t-91 46zM547 350q0 -39 -12 -74.5t-34 -64.5 t-51.5 -50.5t-65.5 -32.5l-11 39q29 9 54 26.5t43 41.5t28 53.5t10 61.5t-10 61.5t-28 53.5t-43 41.5t-54 26.5l11 39q36 -11 65.5 -32.5t51.5 -50.5t34 -64.5t12 -74.5zM419 350q0 -35 -20 -61.5t-52 -36.5l-12 39q20 6 31.5 22t11.5 37q0 20 -11.5 36.5t-31.5 23.5l12 38 q32 -10 52 -36.5t20 -61.5z" />
<glyph unicode="&#x4d;" d="M19 450h94l172 172v-544l-172 171h-94v201v0z" />
<glyph unicode="&#x4e;" d="M0 437h90l172 176v-526l-172 176h-90v174zM568 393h132v-87h-132v-131h-87v131h-131v87h131v132h87v-132z" />
<glyph unicode="&#x4f;" d="M0 437h90l172 176v-526l-172 176h-90v174zM350 393h350v-87h-350v87z" />
<glyph unicode="&#x50;" d="M350 350l216 216v-432zM134 350l216 216v-216v-216z" />
<glyph unicode="&#x51;" d="M350 350l-216 -216v432zM566 350l-216 -216v216v216z" />
<glyph unicode="&#x52;" d="M134 566v-216v0v-216h-64v432h64zM350 350l216 216v-432zM134 350l216 216v-216v-216z" />
<glyph unicode="&#x53;" d="M566 566h64v-216v-216h-64v216v216zM134 134v432l216 -216zM350 350v216l216 -216l-216 -216v216z" />
<glyph unicode="&#x54;" d="M88 306h-88v219q0 18 13 30.5t31 12.5h524v88l131 -132l-131 -131v88h-480v-175zM613 393h87v-218q0 -18 -13 -31t-30 -13h-526v-88l-132 133l132 131v-89h482v175z" />
<glyph unicode="&#x55;" d="M700 593v-244h-245l91 90q-26 56 -78 91t-118 35q-67 0 -120.5 -37t-77.5 -95l-76 32q16 40 44 74t63.5 58t78 37.5t88.5 13.5q41 0 79 -10.5t71 -30t60.5 -47t46.5 -60.5zM350 135q67 0 120 37t78 95l76 -32q-17 -41 -44.5 -74.5t-63 -57.5t-78 -37.5t-88.5 -13.5 q-83 0 -151 40.5t-107 107.5l-92 -93v247h245l-91 -92v-1q26 -56 78 -91t118 -35z" />
<glyph unicode="&#x56;" d="M566 504q-59 0 -100.5 -8.5t-71.5 -23t-50.5 -35t-35.5 -44.5q-9 18 -19 36.5t-22 36.5q19 24 44.5 45t61.5 36t83 24t110 9v97l134 -134l-134 -135v96zM0 202q36 5 62.5 15t47 23.5t36 30.5t27.5 36q9 -18 19 -36.5t22 -36.5q-31 -39 -80.5 -68.5t-133.5 -40.5v77z M566 292l134 -135l-134 -134v97q-93 0 -154 19t-100 49.5t-62.5 68.5t-42.5 76q-15 29 -31 55.5t-38.5 48.5t-55.5 38t-82 23v77q67 -9 112 -30t75.5 -49.5t50 -61.5t36.5 -66q18 -35 37.5 -66t50.5 -54.5t79.5 -37.5t124.5 -14v96z" />
<glyph unicode="&#x57;" d="M134 108l-134 133l350 351l350 -351l-134 -133l-216 216l-216 -216v0z" />
<glyph unicode="&#x58;" d="M566 592l134 -134l-350 -350l-350 350l134 134l216 -217l216 217v0z" />
<glyph unicode="&#x59;" d="M661 566l-216 -216l217 -216l-134 -133l-347 348v2l347 349zM181 700v-349v-2v-349h-142v700h142z" />
<glyph unicode="&#x5a;" d="M592 134l-133 -134l-350 350l350 350l133 -134l-216 -216l216 -216v0z" />
<glyph unicode="&#x5b;" d="M109 566l133 134l350 -350l-350 -350l-133 134l216 216l-216 216v0z" />
<glyph unicode="&#x5c;" d="M168 700l346 -348v-2l-347 -349l-131 134l216 216l-216 215zM514 700h153v-700h-153v350v2v348z" />
<glyph unicode="&#x5d;" d="M425 318h-264v64h264l-112 109h83l143 -143l-143 -143h-83zM350 0q-72 0 -136 27.5t-111.5 75t-75 111.5t-27.5 136t27.5 136t75 111.5t111.5 75t136 27.5t136 -27.5t111.5 -75t75 -111.5t27.5 -136t-27.5 -136t-75 -111.5t-111.5 -75t-136 -27.5zM350 641 q-60 0 -113 -23t-92.5 -62.5t-62.5 -92.5t-23 -113t23 -113t62.5 -92.5t92.5 -62.5t113 -23t113 23t92.5 62.5t62.5 92.5t23 113t-23 113t-62.5 92.5t-92.5 62.5t-113 23z" />
<glyph unicode="&#x5e;" d="M275 382h264v-64h-264l112 -109h-83l-143 142l143 144h83zM350 700q72 0 136 -27.5t111.5 -75t75 -111.5t27.5 -136t-27.5 -136t-75 -111.5t-111.5 -75t-136 -27.5t-136 27.5t-111.5 75t-75 111.5t-27.5 136t27.5 136t75 111.5t111.5 75t136 27.5zM350 59q60 0 113 23 t92.5 62.5t62.5 92.5t23 113t-23 113t-62.5 92.5t-92.5 62.5t-113 23t-113 -23t-92.5 -62.5t-62.5 -92.5t-23 -113t23 -113t62.5 -92.5t92.5 -62.5t113 -23z" />
<glyph unicode="&#x5f;" d="M382 425v-264h-63v264l-110 -112v83l142 143l144 -143v-83zM700 350q0 -72 -27.5 -136t-75 -111.5t-111.5 -75t-136 -27.5t-136 27.5t-111.5 75t-75 111.5t-27.5 136t27.5 136t75 111.5t111.5 75t136 27.5t136 -27.5t111.5 -75t75 -111.5t27.5 -136zM59 350 q0 -60 23 -113t62.5 -92.5t92.5 -62.5t113 -23t113 23t92.5 62.5t62.5 92.5t23 113t-23 113t-62.5 92.5t-92.5 62.5t-113 23t-113 -23t-92.5 -62.5t-62.5 -92.5t-23 -113z" />
<glyph unicode="&#x60;" d="M319 275v264h63v-264l109 112v-83l-143 -143l-143 143v83zM0 350q0 72 27.5 136t75 111.5t111.5 75t136 27.5t136 -27.5t111.5 -75t75 -111.5t27.5 -136t-27.5 -136t-75 -111.5t-111.5 -75t-136 -27.5t-136 27.5t-111.5 75t-75 111.5t-27.5 136zM641 350q0 60 -23 113 t-62.5 92.5t-92.5 62.5t-113 23t-113 -23t-92.5 -62.5t-62.5 -92.5t-23 -113t23 -113t62.5 -92.5t92.5 -62.5t113 -23t113 23t92.5 62.5t62.5 92.5t23 113z" />
<glyph unicode="&#x61;" d="M375 350l-172 349l294 -349l-294 -350l172 350v0z" />
<glyph unicode="&#x62;" d="M326 350l171 -350l-294 350l294 350l-171 -350v0z" />
<glyph unicode="&#x63;" d="M350 375l-350 -172l350 294l350 -294l-350 172v0z" />
<glyph unicode="&#x64;" d="M350 326l349 171l-349 -294l-350 294l350 -171v0z" />
<glyph unicode="&#x65;" d="M700 350l-700 -307l131 307l-131 306l700 -306v0z" />
<glyph unicode="&#x66;" d="M0 350l700 306l-132 -306l132 -307l-700 307v0z" />
<glyph unicode="&#x67;" d="M350 700l306 -700l-306 131l-307 -131l307 700v0z" />
<glyph unicode="&#x68;" d="M350 0l-307 700l307 -132l306 132l-306 -700v0z" />
<glyph unicode="&#x69;" d="M478 261q20 22 33.5 42t27.5 39v-318h-539v539h444q-19 -14 -35.5 -28t-32.5 -34h-315v-417h417v177zM283 324q57 58 121 119q55 52 125.5 114t146.5 119l24 -25q-47 -54 -94.5 -110t-95.5 -118t-95.5 -130.5t-94.5 -147.5q-17 20 -47.5 53t-65 69t-67 69.5t-53.5 53.5 l57 58z" />
<glyph unicode="&#x6a;" d="M539 24h-539v539h539v-539v0zM60 84h419v419h-419v-419v0z" />
<glyph unicode="&#x6b;" d="M0 563h539v-539h-539v539zM478 85v417h-417v-417h417zM417 441v-295h-295v295h295z" />
<glyph unicode="&#x6c;" d="M486 45h-272q-35 0 -65.5 13.5t-53.5 36.5t-36.5 53.5t-13.5 65.5v272q0 35 13.5 65.5t36.5 53.5t53.5 36.5t65.5 13.5h272q35 0 65.5 -13.5t53.5 -36.5t36.5 -53.5t13.5 -65.5v-272q0 -35 -13.5 -65.5t-36.5 -53.5t-53.5 -36.5t-65.5 -13.5zM214 587q-21 0 -39.5 -8 t-32 -21.5t-21.5 -32t-8 -39.5v-272q0 -21 8 -39.5t21.5 -32t32 -21.5t39.5 -8h272q21 0 39.5 8t32 21.5t21.5 32t8 39.5v272q0 21 -8 39.5t-21.5 32t-32 21.5t-39.5 8h-272zM498 513l-198 -198l-98 98l-64 -64l162 -162l262 262z" />
<glyph unicode="&#x6d;" d="M486 45h-272q-35 0 -65.5 13.5t-53.5 36.5t-36.5 53.5t-13.5 65.5v272q0 35 13.5 65.5t36.5 53.5t53.5 36.5t65.5 13.5h272q35 0 65.5 -13.5t53.5 -36.5t36.5 -53.5t13.5 -65.5v-272q0 -35 -13.5 -65.5t-36.5 -53.5t-53.5 -36.5t-65.5 -13.5zM214 587q-21 0 -39.5 -8 t-32 -21.5t-21.5 -32t-8 -39.5v-272q0 -21 8 -39.5t21.5 -32t32 -21.5t39.5 -8h272q21 0 39.5 8t32 21.5t21.5 32t8 39.5v272q0 21 -8 39.5t-21.5 32t-32 21.5t-39.5 8h-272z" />
<glyph unicode="&#x6e;" d="M486 45h-272q-35 0 -65.5 13.5t-53.5 36.5t-36.5 53.5t-13.5 65.5v272q0 35 13.5 65.5t36.5 53.5t53.5 36.5t65.5 13.5h272q35 0 65.5 -13.5t53.5 -36.5t36.5 -53.5t13.5 -65.5v-272q0 -35 -13.5 -65.5t-36.5 -53.5t-53.5 -36.5t-65.5 -13.5zM214 587q-21 0 -39.5 -8 t-32 -21.5t-21.5 -32t-8 -39.5v-272q0 -21 8 -39.5t21.5 -32t32 -21.5t39.5 -8h272q21 0 39.5 8t32 21.5t21.5 32t8 39.5v272q0 21 -8 39.5t-21.5 32t-32 21.5t-39.5 8h-272zM430 170h-160q-42 0 -71 29t-29 71v160q0 42 29 71t71 29h160q42 0 71 -29t29 -71v-160 q0 -42 -29 -71t-71 -29z" />
<glyph unicode="&#x6f;" d="M350 655q63 0 118.5 -24t97 -65.5t65.5 -97t24 -118.5t-24 -118.5t-65.5 -97t-97 -65.5t-118.5 -24t-118.5 24t-97 65.5t-65.5 97t-24 118.5t24 118.5t65.5 97t97 65.5t118.5 24zM350 113q49 0 92 18.5t75.5 51t51 75.5t18.5 92t-18.5 92t-51 75.5t-75.5 51t-92 18.5 t-92 -18.5t-75.5 -51t-51 -75.5t-18.5 -92t18.5 -92t51 -75.5t75.5 -51t92 -18.5zM350 486q28 0 53 -10.5t43.5 -29t29 -43.5t10.5 -53t-10.5 -53t-29 -43.5t-43.5 -29t-53 -10.5t-53 10.5t-43.5 29t-29 43.5t-10.5 53t10.5 53t29 43.5t43.5 29t53 10.5z" />
<glyph unicode="&#x70;" d="M350 655q63 0 118.5 -24t97 -65.5t65.5 -97t24 -118.5t-24 -118.5t-65.5 -97t-97 -65.5t-118.5 -24t-118.5 24t-97 65.5t-65.5 97t-24 118.5t24 118.5t65.5 97t97 65.5t118.5 24zM350 113q49 0 92 18.5t75.5 51t51 75.5t18.5 92t-18.5 92t-51 75.5t-75.5 51t-92 18.5 t-92 -18.5t-75.5 -51t-51 -75.5t-18.5 -92t18.5 -92t51 -75.5t75.5 -51t92 -18.5z" />
<glyph unicode="&#x71;" d="M700 527v-29h-118v-119h-30v119h-119v29h119v119h30v-119h118zM341 616h-58q29 -11 44 -41t15 -65q0 -29 -14.5 -53.5t-37.5 -42.5q-22 -17 -28 -27t-6 -24q0 -6 5 -14.5t12.5 -16.5t16 -15.5t14.5 -11.5q36 -26 50 -52.5t14 -66.5q0 -25 -12 -48.5t-34.5 -42t-56.5 -30 t-77 -11.5q-39 0 -73 7.5t-59.5 21.5t-40.5 34t-15 45t14 49t38 42.5t57 29.5t71 11h31q-10 10 -17 22.5t-7 27.5q0 18 9 35h-17q-32 0 -57.5 10t-44 28t-28.5 42.5t-10 52.5q0 27 13.5 51.5t36 42.5t51 29t59.5 11h183zM319 197q-6 23 -25.5 38t-48.5 35q-11 3 -22 5t-23 2 q-27 0 -51 -7.5t-42.5 -20.5t-29.5 -30.5t-11 -37.5t9 -37.5t25 -31t38.5 -21.5t48.5 -8q74 0 104 27.5t30 68.5q0 5 -0.5 9t-1.5 9zM206 397q18 0 32 8t23.5 23t13.5 35t1 44q-3 23 -12.5 43.5t-23 35.5t-30 24.5t-34.5 9.5q-18 1 -32 -7t-24 -23t-13.5 -35t-0.5 -43 t12 -44t22.5 -36.5t30.5 -25t35 -9.5z" />
<glyph unicode="&#x72;" d="M584 700q24 0 45 -9.5t37 -25.5t25 -37.5t9 -45.5v-464q0 -25 -9 -46.5t-25 -37.5t-37 -25t-45 -9h-468q-24 0 -45.5 9t-37 25t-24.5 37.5t-9 46.5v464q0 24 9 45.5t24.5 37.5t37 25.5t45.5 9.5h468zM536 579h143v3q0 20 -7.5 37.5t-20.5 31t-30.5 21t-36.5 7.5h-48v-100 zM358 579h156v100h-156v-100zM186 579h150v100h-150v-100zM21 579h144v100h-49q-40 0 -67.5 -28.5t-27.5 -68.5v-3zM557 333h-164v158h-86v-158h-164v-93h164v-157h86v157h164v93z" />
<glyph unicode="&#x73;" d="M431 566q-10 0 -18.5 -11t-8.5 -29v-68h134v-134h-134v-324h-135v324h-107v134h107v67q0 36 13 68t35 56t51.5 37.5t62.5 13.5h107v-134h-107v0z" />
<glyph unicode="&#x74;" d="M583 700q24 0 45.5 -9t37.5 -25t25 -37.5t9 -45.5v-466q0 -24 -9 -45.5t-25 -37.5t-37.5 -25t-45.5 -9h-124v263h110v109h-110v56q0 14 7.5 23.5t15.5 9.5h87v108h-87q-27 0 -51 -11t-42 -30.5t-28.5 -45.5t-10.5 -56v-54h-88v-109h88v-263h-233q-24 0 -45.5 9t-37 25 t-25 37.5t-9.5 45.5v466q0 24 9.5 45.5t25 37.5t37 25t45.5 9h466v0z" />
<glyph unicode="&#x75;" d="M0 242q17 -16 46 -29t64 -16t73.5 9t74.5 47q-28 -3 -42 12q-16 15 -6 30q4 6 10 10.5t13 8.5q-24 -4 -44 5q-13 7 -24 15t-14 22q8 9 18 14.5t29 3.5q-18 6 -33.5 14t-27.5 19q-11 12 -14 20.5t-5 16.5q11 4 21 6t21 0q-25 14 -37 30.5t-18 36.5q-4 9 -2 22 q51 -19 89 -35.5t65.5 -31.5t46.5 -28.5t32 -26.5q6 16 16 39.5t23.5 48.5t30.5 47t37 34q2 -8 -5 -16q12 6 23 14.5t28 8.5q-5 -17 -25 -25q25 10 45 14q11 2 11.5 -4t-5.5 -11q-13 -8 -25 -11t-26 -7q40 -2 71.5 -20.5t56.5 -59.5q17 -27 21 -55q32 -10 66 -4q5 1 9 1.5 t9 2.5q-8 -9 -15 -16.5t-18 -11.5q-11 -3 -21 -6t-21 -3q18 -7 38 -8.5t40 0.5q-26 -24 -45.5 -28t-39.5 -3q-8 -35 -27 -70.5t-55 -67.5q-48 -43 -99 -64t-104 -26q-51 -5 -99 -1t-102 29q-79 37 -129 104z" />
<glyph unicode="&#x76;" d="M583 700q24 0 45.5 -9t37.5 -25t25 -37.5t9 -45.5v-466q0 -24 -9 -45.5t-25 -37.5t-37.5 -25t-45.5 -9h-466q-24 0 -45.5 9t-37 25t-25 37.5t-9.5 45.5v466q0 24 9.5 45.5t25 37.5t37 25t45.5 9h466zM582 340q17 -1 34.5 2t40.5 25q-18 -2 -35 -1t-34 7q19 1 37 9 q9 3 16 10t13 15q-4 -2 -7.5 -3t-8.5 -1q-28 -6 -58 2q-3 25 -18 49q-22 35 -49.5 52t-62.5 18q11 4 22 6t22 10q5 4 5 9.5t-10 3.5q-20 -5 -39 -12q17 7 22 22q-15 0 -25 -7.5t-21 -12.5q6 5 6 14q-18 -11 -33 -30t-27 -41t-20.5 -43t-13.5 -34q-23 22 -69.5 47.5 t-134.5 59.5q-2 -11 1 -20q5 -17 16 -32t32 -26q-17 1 -36 -5q2 -8 4.5 -15t12.5 -18q10 -10 23.5 -17t29.5 -12q-17 2 -25.5 -3t-16.5 -12q3 -13 13 -20.5t21 -12.5q16 -8 39 -5q-15 -6 -20 -16q-8 -15 4 -27q14 -13 37 -10q-31 -31 -64.5 -41.5t-64.5 -8t-56.5 14.5 t-40.5 26q23 -31 51 -53t63 -39q46 -21 88.5 -24.5t87.5 0.5q46 4 90.5 22.5t86.5 55.5q32 29 48.5 59.5t23.5 62.5z" />
<glyph unicode="&#x77;" d="M545 174q36 0 60.5 -24.5t24.5 -61.5t-26 -62.5t-62 -25.5h-193q-58 0 -108.5 23.5t-88.5 64.5t-60 95.5t-22 117.5v310q0 37 25.5 63t62.5 26q36 0 60.5 -26t24.5 -63v-86h299q37 0 62.5 -25.5t25.5 -62.5q0 -36 -25.5 -61.5t-62.5 -25.5h-299v-49q0 -25 9 -48t24 -40.5 t35 -28t41 -10.5h193v0z" />
<glyph unicode="&#x78;" d="M583 700q24 0 45.5 -9t37.5 -25t25 -37.5t9 -45.5v-466q0 -24 -9 -45.5t-25 -37.5t-37.5 -25t-45.5 -9h-466q-24 0 -45.5 9t-37 25t-25 37.5t-9.5 45.5v466q0 24 9.5 45.5t25 37.5t37 25t45.5 9h466zM351 241q-13 0 -25.5 6.5t-22 17t-15 24.5t-5.5 30v31h187q23 0 39 16 t16 39t-16 38.5t-39 15.5h-187v54q0 23 -15 39t-38 16t-39 -16t-16 -39v-194q0 -39 13.5 -73t37.5 -59.5t55.5 -40t67.5 -14.5h121q23 0 39 16t16 39t-15 38.5t-38 15.5h-121z" />
<glyph unicode="&#x79;" d="M93 187q19 0 36 -7.5t30 -20t20 -29.5t7 -36q0 -39 -27 -66t-66 -27q-19 0 -36 7t-29.5 20t-20 29.5t-7.5 36.5q0 19 7.5 36t20 29.5t29.5 20t36 7.5zM0 462q96 0 180 -36.5t146.5 -99t99 -146.5t36.5 -180h-134q0 66 -25 125.5t-71 106.5q-48 47 -107 71.5t-125 24.5 v134zM0 700q96 0 185.5 -25t167.5 -70.5t142 -109.5t109.5 -142t70.5 -167.5t25 -185.5h-134q0 117 -44.5 220t-121.5 180t-180 121.5t-220 44.5v134z" />
<glyph unicode="&#x7a;" d="M583 700q24 0 45.5 -9t37.5 -25t25 -37.5t9 -45.5v-466q0 -24 -9 -45.5t-25 -37.5t-37.5 -25t-45.5 -9h-466q-24 0 -45.5 9t-37 25t-25 37.5t-9.5 45.5v466q0 24 9.5 45.5t25 37.5t37 25t45.5 9h466zM186 127q25 0 42.5 17.5t17.5 41.5q0 25 -17.5 42.5t-42.5 17.5 t-42 -17.5t-17 -42.5q0 -24 17 -41.5t42 -17.5zM421 127q0 61 -23 114.5t-63 93.5t-93.5 63t-114.5 23v-85q42 0 80 -16t67 -46q30 -29 45.5 -67t15.5 -80h86zM573 127q0 92 -35 173.5t-95.5 142t-142 95.5t-173.5 35v-85q75 0 140.5 -28.5t114 -77.5t77 -114.5t28.5 -140.5 h86z" />
<glyph unicode="&#x7b;" d="M580 594q23 -23 37 -53.5t14 -68.5q0 -42 -8 -80t-29 -66.5t-58.5 -46.5t-97.5 -20q13 -9 24 -27.5t11 -50.5v-110q0 -8 4 -15q3 -6 8.5 -12t15.5 -9q3 -3 5 -6q1 -2 0 -5t-7 -5q-20 -1 -35 4q-13 5 -23.5 15t-10.5 32v84q0 9 -1 17q-1 7 -3.5 14t-8.5 12v-136 q0 -9 2 -18q2 -8 5.5 -15.5t10.5 -12.5q2 -5 2 -9q0 -3 -3.5 -5t-12.5 0q-13 2 -24 10q-9 7 -17 19.5t-9 33.5l-1 139h-12l-1 -139q-1 -21 -9 -33.5t-17 -19.5q-11 -8 -24 -10q-10 -2 -13 0t-3 5q0 4 3 9q6 5 9.5 12.5t5.5 15.5q2 9 3 18v138q-7 -5 -9.5 -12t-3.5 -15 q-1 -9 -1 -18v-84q0 -22 -11 -32t-24 -15q-15 -5 -34 -4q-6 2 -7 5t1 5q2 3 5 6q9 3 14.5 9t8.5 12q4 7 5 15v77q-41 -9 -66.5 -2t-39.5 19q-17 14 -24 34q-7 16 -14 27t-13 17q-7 7 -15 11q-13 9 -14 13.5t3 6.5q4 3 14 3q14 -2 24.5 -8t18.5 -13q9 -8 15 -18 q13 -23 29.5 -32t33 -9.5t30 4t20.5 7.5q4 20 13 32t20 19q-47 6 -84.5 20t-63.5 39.5t-40 63t-14 90.5q0 35 12 63.5t32 50.5q-2 4 -4.5 14t-3.5 25t1.5 33.5t11.5 40.5q11 3 28 -1q14 -3 36.5 -13t53.5 -30q53 14 107 14q49 0 96 -12q29 20 51 29t36 12q17 4 27 1 q15 -37 13.5 -64.5t-6.5 -40.5zM362 278q42 0 79 2.5t64.5 14.5t43.5 37t16 71q0 39 -35 71q-14 12 -32 16t-40 4t-46 -2.5t-50 -2.5q-27 0 -51.5 2.5t-46 2.5t-39.5 -4t-32 -17q-16 -14 -25.5 -32t-9.5 -38q0 -41 16 -65.5t43.5 -37.5t65 -17.5t79.5 -4.5zM252 458 q17 0 29.5 -17.5t12.5 -43.5t-12.5 -43.5t-29.5 -17.5q-18 0 -30.5 17.5t-12.5 43.5t12.5 43.5t30.5 17.5zM479 458q17 0 29.5 -17.5t12.5 -43.5t-12.5 -43.5t-29.5 -17.5q-18 0 -30.5 17.5t-12.5 43.5t12.5 43.5t30.5 17.5zM363 333q-12 0 -12 10q0 11 12 11q10 0 10 -11 q0 -10 -10 -10zM385 321q2 -2 1 -5q-5 -17 -24 -17q-17 0 -25 17q0 3 3 5q4 0 4 -3q5 -12 18 -12t18 12q1 3 5 3z" />
<glyph unicode="&#x7c;" d="M541 328q0 -40 15 -67t32 -43.5t32 -24l15 -7.5q-1 -2 -12 -32t-36 -67q-11 -16 -22.5 -31.5t-24.5 -27.5t-27.5 -19.5t-32.5 -7.5t-30.5 4t-25 9.5t-26.5 10t-34 4.5t-34.5 -4.5t-27 -9.5t-25 -9.5t-28.5 -5.5q-17 0 -32.5 7.5t-29 20.5t-25.5 29t-23 32 q-23 33 -41.5 77t-26.5 91.5t-3.5 95.5t27.5 88t61 64t83 24q17 0 33 -4.5t31 -10.5t28 -11t24 -5q10 0 24.5 6t32 12.5t37 11.5t40.5 3q9 0 24 -2.5t33 -10t36.5 -21t34.5 -36.5q-2 -1 -14 -9t-26 -24.5t-25 -41.5t-11 -58zM453 588q-19 -22 -46.5 -36.5t-57.5 -12.5 q-4 30 8 59t29 49q20 23 48.5 37.5t54.5 15.5q4 -31 -7 -60t-29 -52z" />
<glyph unicode="&#x7d;" d="M700 357q0 -22 -10.5 -40t-27.5 -29q1 -5 1.5 -10.5t0.5 -11.5q0 -43 -24.5 -82t-69.5 -69q-45 -29 -101 -44.5t-119 -15.5t-119 15.5t-101 44.5q-45 30 -69.5 69t-24.5 82q0 11 3 22q-18 11 -28.5 29t-10.5 40q0 33 23.5 56.5t56.5 23.5q29 0 52 -20q43 28 96.5 43 t113.5 16l46 148q1 5 5.5 7.5t9.5 0.5l125 -28q8 18 24.5 29.5t36.5 11.5q28 0 47.5 -19.5t19.5 -46.5t-19.5 -47t-47.5 -20q-27 0 -46 20t-19 47v1l-116 26l-40 -130q57 -2 108 -17.5t92 -41.5q23 20 52 20q33 0 56.5 -23.5t23.5 -56.5zM589 620q-17 0 -28.5 -12t-11.5 -29 t11.5 -29t28.5 -12t29.5 12t12.5 29t-12.5 29t-29.5 12zM25 357q0 -25 20 -42q17 50 66 87q-15 10 -31 10q-23 0 -39 -16t-16 -39zM350 80q60 0 112.5 14.5t91.5 40t61.5 59.5t22.5 72v13q-2 6 -3 12t-3 13q-16 46 -59 80q-5 4 -10.5 7t-10.5 7q-39 25 -91 39t-111 14 t-111 -14t-91 -39q-5 -4 -10.5 -7t-10.5 -7q-43 -34 -59 -80q-2 -7 -3 -13t-3 -12v-13q0 -38 22.5 -72t61.5 -59.5t91.5 -40t112.5 -14.5zM655 315q20 17 20 42q0 23 -16 39t-39 16q-16 0 -31 -10q49 -37 66 -87zM446 186q5 3 10 3t8 -5q8 -10 -1 -19q-43 -34 -113 -34 t-113 34q-9 9 -1 19q3 5 8.5 5t9.5 -3q18 -15 41 -22t55 -7t55 7t41 22zM293 304q0 -20 -14 -34t-34 -14t-33.5 14t-13.5 34t13.5 33.5t33.5 13.5t34 -13.5t14 -33.5zM457 351q20 0 34 -13.5t14 -33.5t-14 -34t-34 -14t-33.5 14t-13.5 34t13.5 33.5t33.5 13.5z" />
<glyph unicode="&#x7e;" d="M583 700q24 0 45.5 -9t37.5 -25t25 -37.5t9 -45.5v-233v-233q0 -24 -9 -45.5t-25 -37.5t-37.5 -25t-45.5 -9h-233h-233q-24 0 -45.5 9t-37 25t-25 37.5t-9.5 45.5v233v233q0 24 9.5 45.5t25 37.5t37 25t45.5 9h233h233zM665 350h-315v315h-233q-35 0 -58.5 -23.5 t-23.5 -58.5v-233h315v-315h233q35 0 58.5 23.5t23.5 58.5v233z" />
<glyph unicode="&#x20;" d="M258 431q34 0 58 -23.5t24 -57.5t-24 -57.5t-58 -23.5q-33 0 -57 23.5t-24 57.5t24 57.5t57 23.5zM350 700q72 0 136 -27.5t111.5 -75t75 -111.5t27.5 -136t-27.5 -136t-75 -111.5t-111.5 -75t-136 -27.5t-136 27.5t-111.5 75t-75 111.5t-27.5 136t27.5 136t75 111.5 t111.5 75t136 27.5zM259 44q80 47 128 127t48 179t-48 179t-128 127q-39 -23 -71.5 -55.5t-56 -72t-36 -84.5t-12.5 -94t12.5 -94t36 -84.5t56 -72t71.5 -55.5z" />
</font>
</defs>
</svg>
